PathFileType	4	(X/Y/Z)	..\data\SUBJ01\dynamic\walk.trc
DataRate	CameraRate	NumFrames	NumMarkers	Units	OrigDataRate	OrigDataStartFrame	OrigNumFrames
100.000000	100.000000	4	33	mm	100.000000	39	337
Frame#	Time	LFHD			RFHD			LBHD			RBHD			C7			T10			CLAV			STRN			LSHO			LELB			LWRA			LWRB			LFIN			RSHO			RELB			RWRA			RWRB			RFIN			LASI			RASI			SACR			LTHI			LKNE			LTIB			LANK			LHEE			LTOE			RTHI			RKNE			RTIB			RANK			RHEE			RTOE			
		X1	Y1	Z1	X2	Y2	Z2	X3	Y3	Z3	X4	Y4	Z4	X5	Y5	Z5	X6	Y6	Z6	X7	Y7	Z7	X8	Y8	Z8	X9	Y9	Z9	X10	Y10	Z10	X11	Y11	Z11	X12	Y12	Z12	X13	Y13	Z13	X14	Y14	Z14	X15	Y15	Z15	X16	Y16	Z16	X17	Y17	Z17	X18	Y18	Z18	X19	Y19	Z19	X20	Y20	Z20	X21	Y21	Z21	X22	Y22	Z22	X23	Y23	Z23	X24	Y24	Z24	X25	Y25	Z25	X26	Y26	Z26	X27	Y27	Z27	X28	Y28	Z28	X29	Y29	Z29	X30	Y30	Z30	X31	Y31	Z31	X32	Y32	Z32	X33	Y33	Z33	

40	1.34	495.7629699707032	1543.995849609375	-265.5704345703126	475.4350891113282	1513.739868164063	-145.7144165039063	343.5221252441407	1469.596923828125	-292.0026855468751	327.0403747558594	1445.504150390625	-162.6517028808594	291.6586303710938	1358.351196289063	-224.8927154541016	222.8338775634766	1138.6767578125	-236.7678985595704	437.3993530273439	1256.481323242188	-234.0995635986329	492.4616699218751	1098.366821289063	-232.6548919677735	354.0010375976563	1321.025268554688	-396.6996459960939	392.7615051269532	1039.41357421875	-519.8461303710939	569.0985107421876	885.307312011719	-458.8450927734376	546.7171020507814	853.5166015625002	-511.1310424804689	636.8427124023439	821.9295654296877	-466.970916748047	355.5939331054688	1286.876831054688	-53.12622451782228	259.7027282714844	1004.460998535156	36.33897018432618	340.6645812988282	768.0169067382815	0.3603211641311646	271.1057434082032	761.7475585937501	37.55907821655274	352.0149230957032	683.9219360351564	27.29453468322755	403.6026000976564	870.2894287109377	-376.4100341796876	414.226531982422	857.528991699219	-99.24929809570315	231.9717407226563	878.1649169921877	-226.6914672851563	299.7299499511719	602.8709716796876	-442.4453735351564	280.5129089355469	426.9000854492189	-348.4585571289063	218.3931579589844	190.6658325195313	-366.0208740234376	208.7079315185547	64.0944061279297	-295.1684570312501	147.2283172607422	56.81271743774415	-256.9364013671876	312.9677734375001	45.68999481201173	-262.5165405273438	454.7720642089845	592.8507080078126	-41.59556579589844	539.9192504882814	442.8850402832032	-112.7345123291016	533.0700683593751	210.3829193115235	-76.83264923095705	519.8894653320314	85.49533843994142	-130.9805755615235	466.7987670898439	76.61560821533205	-184.3877716064453	630.8326416015626	64.75403594970705	-155.0723114013672	
41	1.35	506.2506103515626	1542.4326171875	-265.4334716796876	485.8964843750001	1512.193115234375	-145.5793609619141	354.0282287597657	1467.985473632813	-291.8909912109376	337.5173950195313	1443.921142578125	-162.5303344726563	302.1159057617188	1356.778564453125	-224.7927703857422	233.3487091064454	1137.073364257813	-236.3070220947266	447.863006591797	1254.908569335938	-233.8777923583985	502.9000244140626	1096.80615234375	-232.5380401611329	364.4700622558594	1319.500122070313	-396.4289855957032	405.3775024414064	1038.674194335938	-519.9314575195314	583.9066772460939	888.1502685546877	-456.6735229492189	562.7449951171876	855.822692871094	-509.1373901367189	653.0023803710939	826.1049804687502	-463.9451599121095	365.8410644531251	1285.518432617188	-52.90796279907228	268.1043090820313	1003.662414550781	36.27740859985352	347.6150817871094	766.6358642578126	0.4566534161567689	277.9309997558594	760.7965698242189	37.36969375610352	358.3340454101563	682.4348144531251	27.36046600341798	413.6488342285157	868.608337402344	-376.4366149902344	425.2855834960939	855.6693115234377	-99.11112976074222	242.7340850830079	876.5939941406252	-225.9498748779297	306.6044006347657	602.5513916015626	-442.3723754882814	285.5082092285157	426.4629211425782	-348.3558959960938	220.0746307373047	191.0722045898438	-366.0328674316407	209.0546417236329	64.62200927734376	-295.0841674804688	147.5177917480469	57.82036209106447	-256.8253479003907	313.0370483398438	45.59920501708985	-262.5123596191407	463.3715209960939	589.9801635742189	-41.14831542968751	548.0236816406251	439.9320068359376	-112.5700225830078	556.7133789062501	208.3193664550782	-76.24531555175783	553.3145751953126	82.58737945556642	-130.6258850097657	500.8951721191407	70.4123001098633	-184.1534729003907	665.5747680664064	68.41236877441408	-154.6669464111328	
42	1.36	516.8079833984376	1540.765625	-265.2420043945313	496.4378051757814	1510.544067382813	-145.3909606933594	364.6030883789063	1466.270263671875	-291.7189636230469	348.0648193359376	1442.236694335938	-162.3513641357422	312.6411132812501	1355.100219726563	-224.6056671142579	243.9434051513672	1135.3564453125	-235.7661590576172	458.407928466797	1253.235717773438	-233.6330718994141	513.4273681640626	1095.150634765625	-232.4112091064454	374.9567260742188	1317.892211914063	-396.092987060547	417.7708129882814	1037.809204101563	-519.9428100585939	598.3627929687501	890.775573730469	-454.5799865722657	578.3406372070314	857.930358886719	-507.1651306152345	668.6999511718751	830.0217895507815	-461.0179138183595	376.2598876953126	1284.026733398438	-52.64944076538087	276.9564208984376	1002.689392089844	36.33996963500977	354.8845825195313	765.0642700195314	0.500039577484131	285.1700439453126	759.6855468750001	37.29597091674805	365.0216369628907	680.7654418945314	27.35536003112794	423.8188781738282	866.8377685546877	-376.4206237792969	436.4305114746095	853.7059326171877	-98.93293762207034	253.5960540771485	874.9170532226565	-225.1567077636719	313.8348083496094	602.1271972656251	-442.2956542968751	290.8795776367188	425.9711303710939	-348.2366027832032	221.9856262207032	191.5322723388672	-366.0675354003907	209.4821319580079	65.2463836669922	-295.0574645996094	147.8500061035157	58.96875381469728	-256.7973327636719	313.1227416992188	45.51940917968751	-262.5199890136719	471.416717529297	586.6510009765626	-40.65978622436524	555.5505981445314	436.7211914062501	-112.2784500122071	579.4875488281251	206.8101501464844	-75.61856842041017	585.6682128906251	80.77795410156251	-130.2259674072266	534.0873413085939	65.4287567138672	-183.8869171142578	698.9436035156251	73.04721069335939	-154.1438446044922	
43	1.37	527.4305419921876	1539.012573242188	-264.9868774414063	507.0573730468751	1508.807739257813	-145.1406860351563	375.2430725097657	1464.467651367188	-291.4756469726563	358.6828918457032	1440.463256835938	-162.1052856445313	323.2353515625001	1353.325805664063	-224.3207702636719	254.6255950927735	1133.535034179688	-235.1490020751954	469.0366210937501	1251.477783203125	-233.3607940673829	524.0518798828126	1093.414794921875	-232.2693786621094	385.4612426757814	1316.217163085938	-395.6878967285157	429.9487915039064	1036.829833984375	-519.8812866210939	612.4615478515626	893.160583496094	-452.5742492675782	593.4909057617189	859.8137817382815	-505.2247009277345	683.9277343750001	833.6448974609377	-458.202117919922	386.849334716797	1282.406860351563	-52.34499740600587	286.2498779296876	1001.541870117188	36.53411102294923	362.4996643066407	763.3145141601564	0.5141231417655946	292.8320312500001	758.4149780273439	37.3445053100586	372.0973205566407	678.9206542968751	27.29951858520509	434.1327209472657	864.9874267578127	-376.3591613769532	447.6601867675782	851.6621704101565	-98.7109298706055	264.5617675781251	873.1478271484377	-224.3204650878907	321.4574584960938	601.6007690429689	-442.2197875976564	296.6329650878907	425.4269104003907	-348.1109924316407	224.1406555175782	192.0513153076172	-366.1445312500001	209.9911499023438	65.97337341308595	-295.1105957031251	148.2245025634766	60.26996994018556	-256.8842468261719	313.2311096191407	45.4515724182129	-262.5455932617188	479.0199279785157	582.9263305664064	-40.13959121704102	562.7188720703126	433.4602050781251	-111.841049194336	601.2333984375001	205.8070678710938	-74.99317169189455	616.5161743164064	79.94073486328126	-129.8186798095703	565.9149169921876	61.60460662841798	-183.643051147461	730.5403442382814	78.39148712158205	-153.4896545410157	
